<svg xmlns="http://www.w3.org/2000/svg" viewBox="0 0 32 32" role="img" aria-label="AROHA">
  <defs>
    <linearGradient id="arohaGold" x1="50%" y1="0%" x2="50%" y2="100%">
      <stop offset="0%" stop-color="#f0e4c8"/>
      <stop offset="45%" stop-color="#d4b978"/>
      <stop offset="100%" stop-color="#b8924f"/>
    </linearGradient>
  </defs>
  <rect width="32" height="32" rx="8" fill="#001f3f"/>
  <path fill="url(#arohaGold)" opacity="0.9" d="M1 20.5C2.2 15 4.8 11 8.5 9.5c0.4 2.4 0.3 5.2-0.6 8L1 20.5z"/>
  <path fill="url(#arohaGold)" opacity="0.9" d="M31 20.5C29.8 15 27.2 11 23.5 9.5c-0.4 2.4-0.3 5.2 0.6 8L31 20.5z"/>
  <path fill="url(#arohaGold)" d="M7 23 L7 15 L9 17 L12 10 L16 14 L20 10 L23 17 L25 15 L25 23 Z"/>
  <path fill="#f5ecd8" d="M15 5.5h2v2.2h2v1.4h-2v2h-2v-2h-2V7.7h2V5.5z"/>
  <path fill="#001f3f" opacity="0.45" d="M14.5 17h3L16 19.2 14.5 17z"/>
</svg>
